<?xml version="1.0" encoding="iso-8859-1"?>
<!-- Generator: Adobe Illustrator 19.0.0, SVG Export Plug-In . SVG Version: 6.00 Build 0)  -->
<svg version="1.1" id="Capa_1" xmlns="http://www.w3.org/2000/svg" xmlns:xlink="http://www.w3.org/1999/xlink" x="0px" y="0px"
	 viewBox="0 0 512 512" style="enable-background:new 0 0 512 512;" xml:space="preserve">
<g>
	<g>
		<path d="M318.015,447.046h-124.03c-4.144,0-7.502,3.359-7.502,7.502c0,4.144,3.358,7.502,7.502,7.502h124.03
			c4.144,0,7.502-3.359,7.502-7.502S322.159,447.046,318.015,447.046z"/>
	</g>
</g>
<g>
	<g>
		<path d="M451.269,173.811c-4.144,0-7.502,3.359-7.502,7.502v295.129c0,11.334-9.22,20.555-20.554,20.555H88.786
			c-11.334,0-20.554-9.221-20.554-20.555v-87.81c0-4.143-3.358-7.502-7.502-7.502c-4.144,0-7.502,3.359-7.502,7.502v87.81
			C53.229,496.048,69.18,512,88.786,512h334.427c19.606,0,35.557-15.952,35.557-35.558V181.313
			C458.771,177.17,455.413,173.811,451.269,173.811z"/>
	</g>
</g>
<g>
	<g>
		<path d="M423.214,0H88.786C69.18,0,53.229,15.952,53.229,35.558v313.063c0,4.143,3.358,7.502,7.502,7.502
			c4.144,0,7.502-3.359,7.502-7.502V35.558c0-11.334,9.22-20.555,20.554-20.555h334.427c11.334,0,20.554,9.221,20.554,20.555
			v105.745c0,4.143,3.358,7.502,7.502,7.502c4.144,0,7.502-3.359,7.502-7.502V35.558C458.771,15.952,442.82,0,423.214,0z"/>
	</g>
</g>
<g>
	<g>
		<path d="M293.171,297.382c-7.033-8.794-19.255-11.157-29.059-5.619l-102.531,57.922c-10.704,6.048-18.182,16.439-20.516,28.509
			s0.732,24.5,8.41,34.101c7.678,9.601,19.129,15.325,31.417,15.702c0.433,0.013,0.863,0.02,1.294,0.02
			c11.818,0,23.066-4.973,31.029-13.765l79.049-87.286C299.823,318.619,300.204,306.177,293.171,297.382z M281.141,316.895
			l-79.049,87.285c-5.295,5.848-12.837,9.063-20.74,8.821c-7.886-0.242-15.233-3.915-20.16-10.076s-6.894-14.137-5.397-21.883
			c1.497-7.746,6.297-14.413,13.165-18.293l102.532-57.922c1.219-0.689,2.547-1.021,3.859-1.021c2.306,0,4.566,1.026,6.102,2.947
			C283.864,309.768,283.733,314.033,281.141,316.895z"/>
	</g>
</g>
<g>
	<g>
		<path d="M256,83.791c-78.042,0-141.535,63.492-141.535,141.535c0,35.943,13.493,70.209,37.993,96.485
			c2.826,3.029,7.571,3.197,10.602,0.371c3.031-2.825,3.197-7.572,0.371-10.603c-21.901-23.489-33.962-54.121-33.962-86.253
			c0-69.769,56.762-126.531,126.531-126.531s126.531,56.761,126.531,126.531c0,50.754-30.158,96.442-76.829,116.399
			c-3.81,1.629-5.578,6.038-3.949,9.847c1.218,2.848,3.988,4.554,6.902,4.554c0.984,0,1.984-0.195,2.945-0.606
			c52.203-22.321,85.935-73.425,85.935-130.194C397.535,147.283,334.042,83.791,256,83.791z"/>
	</g>
</g>
<g>
	<g>
		<path d="M256,197.819c-15.167,0-27.507,12.339-27.507,27.507c0,15.167,12.34,27.507,27.507,27.507s27.507-12.34,27.507-27.507
			S271.167,197.819,256,197.819z M256,237.829c-6.894,0-12.503-5.609-12.503-12.503s5.609-12.503,12.503-12.503
			c6.894,0,12.503,5.609,12.503,12.503S262.894,237.829,256,237.829z"/>
	</g>
</g>
<g>
	<g>
		<path d="M114.632,34.061c-15.38,0-27.893,12.512-27.893,27.892s12.513,27.892,27.893,27.892s27.892-12.512,27.892-27.892
			S130.012,34.061,114.632,34.061z M114.632,74.841c-7.107,0-12.889-5.782-12.889-12.888s5.782-12.888,12.889-12.888
			c7.106,0,12.888,5.782,12.888,12.888S121.739,74.841,114.632,74.841z"/>
	</g>
</g>
<g>
	<g>
		<path d="M397.368,34.061c-15.38,0-27.892,12.512-27.892,27.892s12.512,27.892,27.892,27.892s27.893-12.512,27.893-27.892
			S412.747,34.061,397.368,34.061z M397.368,74.841c-7.106,0-12.888-5.782-12.888-12.888s5.782-12.888,12.888-12.888
			c7.107,0,12.889,5.782,12.889,12.888S404.475,74.841,397.368,74.841z"/>
	</g>
</g>
<g>
	<g>
		<path d="M114.632,422.155c-15.38,0-27.892,12.513-27.892,27.892c0,15.379,12.513,27.892,27.892,27.892
			c15.38,0,27.892-12.512,27.892-27.892S130.012,422.155,114.632,422.155z M114.632,462.935c-7.107,0-12.889-5.782-12.889-12.888
			c0.001-7.106,5.782-12.888,12.889-12.888c7.106,0,12.888,5.782,12.888,12.888C127.52,457.154,121.738,462.935,114.632,462.935z"/>
	</g>
</g>
<g>
	<g>
		<path d="M397.368,422.155c-15.38,0-27.892,12.512-27.892,27.892s12.512,27.892,27.892,27.892s27.893-12.512,27.893-27.892
			S412.747,422.155,397.368,422.155z M397.368,462.936c-7.106,0-12.888-5.782-12.888-12.888c0-7.107,5.782-12.888,12.888-12.888
			c7.107,0,12.889,5.782,12.889,12.888C410.256,457.154,404.475,462.936,397.368,462.936z"/>
	</g>
</g>
<g>
</g>
<g>
</g>
<g>
</g>
<g>
</g>
<g>
</g>
<g>
</g>
<g>
</g>
<g>
</g>
<g>
</g>
<g>
</g>
<g>
</g>
<g>
</g>
<g>
</g>
<g>
</g>
<g>
</g>
</svg>
