<?xml version="1.0" encoding="UTF-8"?>
<svg width="31px" height="28px" viewBox="0 0 31 28" version="1.1" xmlns="http://www.w3.org/2000/svg" xmlns:xlink="http://www.w3.org/1999/xlink">
    <title>icon-wallet</title>
    <g id="Page-1" stroke="none" stroke-width="1" fill="none" fill-rule="evenodd">
        <g id="Spare-App" transform="translate(-121.000000, -319.000000)" stroke="#FFFFFF">
            <g id="icon-wallet" transform="translate(122.000000, 319.000000)">
                <path d="M0,4 C0,16.1781979 0,22.5670868 0,23.1666667 C0,25.2837582 6.49187113,27 14.5,27 C22.5081289,27 29,25.2837582 29,23.1666667 C29,22.8958835 29,16.5069946 29,4" id="Path" stroke-width="0.95"></path>
                <ellipse id="Oval" stroke-width="0.95" cx="14.5" cy="4" rx="14.025" ry="3.525"></ellipse>
                <ellipse id="Oval" stroke-width="0.5" cx="14.5" cy="4" rx="10.25" ry="1.75"></ellipse>
                <path d="M1,9 C1,11.209139 7.04415588,13 14.5,13 C21.9558441,13 28,11.209139 28,9" id="Path" stroke-width="0.95"></path>
                <path d="M1,13 C1,15.209139 7.04415588,17 14.5,17 C21.9558441,17 28,15.209139 28,13" id="Path" stroke-width="0.95"></path>
                <path d="M1,18 C1,20.209139 7.04415588,22 14.5,22 C21.9558441,22 28,20.209139 28,18" id="Path" stroke-width="0.95"></path>
                <line x1="3.5" y1="8.46666667" x2="3.5" y2="21.5333333" id="Line-4" stroke-width="0.95" fill="#D8D8D8" stroke-linecap="square"></line>
            </g>
        </g>
    </g>
</svg>