<?xml version="1.0" encoding="UTF-8"?>
<svg width="47px" height="29px" viewBox="0 0 47 29" version="1.1" xmlns="http://www.w3.org/2000/svg" xmlns:xlink="http://www.w3.org/1999/xlink">
    <title>icon-farm</title>
    <g id="Page-1" stroke="none" stroke-width="1" fill="none" fill-rule="evenodd">
        <g id="Spare-App" transform="translate(-116.000000, -511.000000)" stroke="#FFFFFF">
            <g id="icon-farm" transform="translate(116.663676, 512.000000)">
                <path d="M8.03616782,16.8910116 L0.834237673,18.685994 C0.2447575,18.8329139 -0.114008519,19.4298841 0.0329113396,20.0193642 C0.121448994,20.3746 0.380919162,20.6625071 0.725068071,20.7873787 L17.8471937,27 L17.8471937,27 L44.8186527,20.4164418 C45.4088382,20.2723814 45.770494,19.6771575 45.6264335,19.086972 C45.5393906,18.7303754 45.2802108,18.4406936 44.9354548,18.3146742 L40.4078215,16.6596789 L40.4078215,16.6596789" id="Path"></path>
                <polyline id="Path" points="27.2974834 19.8124869 30.6478696 21 40.3363241 19.030019 40.3363241 11.1615979"></polyline>
                <polyline id="Path" stroke-linejoin="round" points="27.2686702 11.9338533 30.6478696 13.1315789 40.3363241 11.1615979 30.9497386 8 27.2870994 8.69766919"></polyline>
                <line x1="30.5916875" y1="13.4984545" x2="30.5916875" y2="20.5116124" id="Line" stroke-linecap="square"></line>
                <polygon id="Path-3" points="8.33632412 20.67653 17.6478696 24 27.3363241 22.0162429 27.3363241 3.18370702 17.8363241 -1.95399252e-14 8.33632412 1.8439941"></polygon>
                <polygon id="Path-3" stroke-linejoin="round" points="8.33632412 1.8439941 17.6478696 5.16746411 27.3363241 3.18370702 17.9497386 -5.0985266e-15"></polygon>
                <line x1="17.5916875" y1="5.53690522" x2="17.5916875" y2="23.5081971" id="Line" stroke-linecap="square"></line>
            </g>
        </g>
    </g>
</svg>