<?xml version="1.0" encoding="UTF-8"?>
<svg width="50px" height="54px" viewBox="0 0 50 54" version="1.1" xmlns="http://www.w3.org/2000/svg" xmlns:xlink="http://www.w3.org/1999/xlink">
    <title>Group</title>
    <defs>
        <linearGradient x1="24.7124065%" y1="20.4137231%" x2="74.251162%" y2="81.4139059%" id="linearGradient-1">
            <stop stop-color="#00C865" offset="0%"></stop>
            <stop stop-color="#00E69C" offset="100%"></stop>
        </linearGradient>
    </defs>
    <g id="Page-1" stroke="none" stroke-width="1" fill="none" fill-rule="evenodd">
        <g id="Spare-App" transform="translate(-113.000000, -100.000000)" fill="url(#linearGradient-1)">
            <g id="Group" transform="translate(113.000000, 100.000000)">
                <path d="M25,9.12020459e-13 L33.129,8.083 L18.2712697,22.8562861 L19.7454637,24.3268333 L34.605,9.551 L48.4558305,23.3223113 C50.4869619,25.3418807 50.4963347,28.6256226 48.4767652,30.6567539 C48.4698069,30.6637521 48.4628286,30.6707304 48.4558305,30.6776887 L25,54 L17.117,46.161 L34.1904204,29.185572 L32.7162264,27.7150248 L15.64,44.693 L1.54416952,30.6776887 C-0.486961851,28.6581193 -0.496334657,25.3743774 1.52323478,23.3432461 C1.53019309,23.3362479 1.53717137,23.3292696 1.54416952,23.3223113 L25,9.12020459e-13 Z M26.9387255,21.6338584 C26.6833041,21.3798909 26.2707241,21.3798909 26.0153027,21.6338584 L26.0153027,21.6338584 L21.6031162,26.0209291 L26.0153027,30.4079998 C26.2707241,30.6619672 26.6833041,30.6619672 26.9387255,30.4079998 L26.9387255,30.4079998 L31.350912,26.0209291 Z" id="Combined-Shape"></path>
            </g>
        </g>
    </g>
</svg>