<?xml version="1.0" encoding="UTF-8"?>
<svg width="53px" height="31px" viewBox="0 0 53 31" version="1.1" xmlns="http://www.w3.org/2000/svg" xmlns:xlink="http://www.w3.org/1999/xlink">
    <title>icon-keys</title>
    <g id="Page-1" stroke="none" stroke-width="1" fill="none" fill-rule="evenodd">
        <g id="Spare-App" transform="translate(-112.000000, -611.000000)" stroke="#FFFFFF">
            <g id="icon-keys" transform="translate(113.000000, 613.000000)">
                <path d="M9.11478512,16.2105549 L28.2965722,16.967033 C28.4612004,17.4134889 28.547619,17.8772356 28.547619,18.3529412 C28.547619,20.0635218 27.4222715,21.644111 25.513172,22.7760948 C23.7244381,23.8367087 21.2547984,24.5 18.5238095,24.5 C15.7928207,24.5 13.3231809,23.8367087 11.5344471,22.7760948 C9.62534756,21.644111 8.5,20.0635218 8.5,18.3529412 C8.5,17.6020884 8.71480403,16.8805632 9.11478512,16.2105549 L9.11478512,16.2105549 Z M47.4401111,7.46154834 L49.7049602,8.2478408 L47.7239098,12.1535606 L45.8837875,11.6075397 L45.1867509,12.8811954 L43.5601539,12.2779424 L42.8453916,13.5338321 L40.9619187,12.847184 L39.6769859,14.2668304 L28.317202,17.463166 L17.4258517,21.3086708 L47.4401111,7.46154834 Z" id="Combined-Shape" transform="translate(29.000000, 16.000000) rotate(10.000000) translate(-29.000000, -16.000000) "></path>
                <path d="M11.4973345,15.8773343 C11.4973345,16.9169291 12.9186527,17.7596872 14.6719377,17.7596872 C16.4252226,17.7596872 17.8465408,16.9169291 17.8465408,15.8773343" id="Path" transform="translate(14.671938, 16.818511) rotate(10.000000) translate(-14.671938, -16.818511) "></path>
                <path d="M47.4863145,-0.522411134 L49.7049602,0.247840799 L47.7239098,4.15356065 L45.8837875,3.60753968 L45.1867509,4.88119544 L43.5601539,4.2779424 L42.8453916,5.5338321 L40.9619187,4.847184 L39.6769852,6.26683119 L28.4373516,9.42931153 C28.5101154,9.7309763 28.547619,10.0393749 28.547619,10.3529412 C28.547619,12.0635218 27.4222715,13.644111 25.513172,14.7760948 C23.7244381,15.8367087 21.2547984,16.5 18.5238095,16.5 C15.7928207,16.5 13.3231809,15.8367087 11.5344471,14.7760948 C9.62534756,13.644111 8.5,12.0635218 8.5,10.3529412 C8.5,8.64236057 9.62534756,7.06177131 11.5344471,5.92978759 C13.3231809,4.86917364 15.7928207,4.20588235 18.5238095,4.20588235 C20.8653874,4.20588235 23.0152454,4.69312292 24.7072511,5.50068789 L24.7072511,5.50068789 L47.4863145,-0.522411134 Z" id="Combined-Shape"></path>
                <ellipse id="Oval" cx="15.031746" cy="10.3529412" rx="2.67460317" ry="1.38235294"></ellipse>
                <path d="M14,11 C14,4.92486775 10.8659932,0 7,0 C3.13400675,0 -1.42108547e-14,4.92486775 -1.42108547e-14,11 C-1.42108547e-14,17.0751322 3.13400675,22 7,22 C8.41970367,22 9.7406939,21.3358475 10.8440146,20.1944735" id="Path"></path>
            </g>
        </g>
    </g>
</svg>