<?xml version="1.0" encoding="UTF-8"?>
<svg width="46px" height="30px" viewBox="0 0 46 30" version="1.1" xmlns="http://www.w3.org/2000/svg" xmlns:xlink="http://www.w3.org/1999/xlink">
    <title>icon-plots</title>
    <g id="Page-1" stroke="none" stroke-width="1" fill="none" fill-rule="evenodd">
        <g id="Spare-App" transform="translate(-115.000000, -416.000000)" stroke="#FFFFFF">
            <g id="icon-plots" transform="translate(115.000000, 417.071038)">
                <path d="M11.4727556,18.0225037 L3.12571349,20.1371074 C2.59034142,20.2727362 2.26628551,20.81669 2.40191436,21.352062 C2.4828552,21.6715624 2.71603211,21.930661 3.0252649,22.0447091 L18.5,27.7519408 L18.5,27.7519408 L42.8564734,21.7088972 C43.3925061,21.5759031 43.7192333,21.0335497 43.5862392,20.4975171 C43.5066566,20.1767596 43.273739,19.9160355 42.9639481,19.8009344 L34.3988452,16.6186194 L34.3988452,16.6186194" id="Path"></path>
                <path d="M10.8643656,11.1766306 L3.12571349,13.1371074 C2.59034142,13.2727362 2.26628551,13.81669 2.40191436,14.352062 C2.4828552,14.6715624 2.71603211,14.930661 3.0252649,15.0447091 L18.5,20.7519408 L18.5,20.7519408 L42.8564734,14.7088972 C43.3925061,14.5759031 43.7192333,14.0335497 43.5862392,13.4975171 C43.5066566,13.1767596 43.273739,12.9160355 42.9639481,12.8009344 L34.5123039,9.66077428 L34.5123039,9.66077428" id="Path"></path>
                <path d="M3.0252649,8.04470907 L18.5,13.7519408 L18.5,13.7519408 L42.8564734,7.70889724 C43.3925061,7.57590309 43.7192333,7.0335497 43.5862392,6.49751706 C43.5066566,6.17675964 43.273739,5.91603548 42.9639481,5.80093441 L27.350912,7.99360578e-15 L27.350912,7.99360578e-15 L3.12571349,6.13710739 C2.59034142,6.27273624 2.26628551,6.81668997 2.40191436,7.35206204 C2.4828552,7.67156236 2.71603211,7.93066103 3.0252649,8.04470907 Z" id="Path-3"></path>
                <line x1="13.5" y1="11.1597314" x2="38.5" y2="4.42896217" id="Line-5" stroke-linecap="square"></line>
                <line x1="7.5" y1="9.1597314" x2="32.5" y2="2.42896217" id="Line-5" stroke-linecap="square"></line>
            </g>
        </g>
    </g>
</svg>