<svg id="Layer_5" enable-background="new 0 0 64 64" height="512" viewBox="0 0 64 64" width="512" xmlns="http://www.w3.org/2000/svg"><g><path d="m63 27.763v-5.526l-2.625-.718c-.086-.23-.182-.459-.286-.685l1.351-2.365-3.907-3.908-2.367 1.35c-.227-.104-.455-.2-.684-.286l-.718-2.625h-1.994c-.917-4.047-4.542-7-8.77-7-1.162 0-2.315.227-3.386.661-1.927-3.47-5.598-5.661-9.614-5.661-6.046 0-10.968 4.903-11 10.941-3.06 1.513-5 4.603-5 8.059 0 .335.026.668.063 1h-10.063c-1.654 0-3 1.346-3 3v36c0 1.654 1.346 3 3 3h20 2 17 3 14c1.654 0 3-1.346 3-3v-24c0-1.654-1.346-3-3-3h-.029l1.469-1.469-1.351-2.365c.104-.226.2-.455.286-.685zm-47-7.763c0-2.875 1.728-5.425 4.401-6.496l.667-.267-.053-.899c-.006-.112-.015-.224-.015-.338 0-4.962 4.037-9 9-9 3.567 0 6.802 2.115 8.24 5.387l.439 1 .957-.526c1.026-.563 2.189-.861 3.364-.861 3.132 0 5.833 2.084 6.701 5h-1.465l-.718 2.625c-.229.086-.457.181-.684.286l-2.367-1.35-3.907 3.908 1.351 2.365c-.104.226-.2.455-.286.685l-2.625.718v2.763h-10v-1c0-1.654-1.346-3-3-3h-9.923c-.047-.331-.077-.664-.077-1zm27 11v2h-4v-2zm-6 2h-4v-2h4zm-6 0h-2v-2h2zm-2 22h14v2h-14zm0-8h14v2h-14zm0-8h14v2h-14zm-5 22h-20c-.552 0-1-.448-1-1v-36c0-.551.448-1 1-1h22c.552 0 1 .449 1 1v36c0 .552-.448 1-1 1zm19 0h-14.184c.112-.314.184-.648.184-1v-1h16v-6h-16v-2h16v-6h-16v-2h16v-6h-16v-2h16v-6h-16v-2h17c.552 0 1 .449 1 1v32c0 .552-.448 1-1 1zm4-36c0-2.206 1.794-4 4-4s4 1.794 4 4-1.794 4-4 4c-.713 0-1.394-.194-2-.547v-.453c0-1.295-.829-2.391-1.981-2.81-.003-.063-.019-.127-.019-.19zm10 14v2h-4v-2zm-6 2h-2v-2h2zm-2 14h8v2h-8zm0-8h8v2h-8zm12-11v24c0 .552-.448 1-1 1h-11.184c.112-.314.184-.648.184-1v-1h10v-6h-10v-2h10v-6h-10v-2h10v-6h-10v-2h11c.552 0 1 .448 1 1zm-2.055-4.804-1.803 1.804h-8.142v-2.349c.636.226 1.308.349 2 .349 3.309 0 6-2.691 6-6s-2.691-6-6-6-6 2.691-6 6h-4v-1.237l2.193-.6.161-.525c.144-.463.336-.924.572-1.369l.258-.486-1.13-1.979 1.749-1.75 1.979 1.129.485-.256c.45-.238.912-.43 1.371-.572l.524-.162.602-2.193h2.473l.601 2.193.524.162c.459.142.921.334 1.371.572l.485.256 1.979-1.129 1.749 1.75-1.13 1.979.258.486c.236.445.429.906.572 1.369l.161.525 2.193.6v2.474l-2.193.6-.161.525c-.144.463-.336.924-.572 1.369l-.258.486z"/><path d="m5 31h20v-6h-20zm8-2v-2h4v2zm10 0h-4v-2h4zm-16-2h4v2h-4z"/><path d="m5 39h20v-6h-20zm2-4h16v2h-16z"/><path d="m5 47h20v-6h-20zm2-4h16v2h-16z"/><path d="m5 59h20v-10h-20zm2-8h16v6h-16z"/><path d="m13 53h2v2h-2z"/><path d="m17 53h2v2h-2z"/><path d="m9 53h2v2h-2z"/><path d="m40 13h2v2h-2z"/><path d="m36 13h2v2h-2z"/><path d="m28 13h2v2h-2z"/><path d="m24 13h2v2h-2z"/><path d="m32 13h2v2h-2z"/></g></svg>